<svg width="47" height="10" viewBox="0 0 47 10" fill="none" xmlns="http://www.w3.org/2000/svg">
<path d="M7.18146 9L6.56037 6.96094H3.43732L2.81623 9H0.859198L3.88264 0.398438H6.10334L9.13849 9H7.18146ZM6.12678 5.4375C5.55256 3.58984 5.22834 2.54492 5.15412 2.30273C5.08381 2.06055 5.03303 1.86914 5.00178 1.72852C4.87287 2.22852 4.50373 3.46484 3.89435 5.4375H6.12678ZM11.3134 0.433594H13.9794C15.1942 0.433594 16.0751 0.607422 16.622 0.955078C17.1728 1.29883 17.4482 1.84766 17.4482 2.60156C17.4482 3.11328 17.3271 3.5332 17.0849 3.86133C16.8466 4.18945 16.5282 4.38672 16.1298 4.45312V4.51172C16.6728 4.63281 17.0634 4.85938 17.3017 5.19141C17.5439 5.52344 17.665 5.96484 17.665 6.51562C17.665 7.29688 17.3817 7.90625 16.8153 8.34375C16.2528 8.78125 15.4872 9 14.5185 9H11.3134V0.433594ZM13.1298 3.82617H14.1845C14.6767 3.82617 15.0321 3.75 15.2509 3.59766C15.4735 3.44531 15.5849 3.19336 15.5849 2.8418C15.5849 2.51367 15.4638 2.2793 15.2216 2.13867C14.9833 1.99414 14.6044 1.92188 14.0849 1.92188H13.1298V3.82617ZM13.1298 5.26758V7.5H14.3134C14.8134 7.5 15.1825 7.4043 15.4208 7.21289C15.6591 7.02148 15.7782 6.72852 15.7782 6.33398C15.7782 5.62305 15.2704 5.26758 14.2548 5.26758H13.1298ZM28.2422 4.70508C28.2422 6.12305 27.8906 7.21289 27.1875 7.97461C26.4844 8.73633 25.4766 9.11719 24.1641 9.11719C22.8516 9.11719 21.8438 8.73633 21.1406 7.97461C20.4375 7.21289 20.0859 6.11914 20.0859 4.69336C20.0859 3.26758 20.4375 2.17969 21.1406 1.42969C21.8477 0.675781 22.8594 0.298828 24.1758 0.298828C25.4922 0.298828 26.498 0.677734 27.1934 1.43555C27.8926 2.19336 28.2422 3.2832 28.2422 4.70508ZM21.9902 4.70508C21.9902 5.66211 22.1719 6.38281 22.5352 6.86719C22.8984 7.35156 23.4414 7.59375 24.1641 7.59375C25.6133 7.59375 26.3379 6.63086 26.3379 4.70508C26.3379 2.77539 25.6172 1.81055 24.1758 1.81055C23.4531 1.81055 22.9082 2.05469 22.541 2.54297C22.1738 3.02734 21.9902 3.74805 21.9902 4.70508ZM38.0811 0.433594V5.97656C38.0811 6.60938 37.9386 7.16406 37.6534 7.64062C37.3722 8.11719 36.964 8.48242 36.4288 8.73633C35.8936 8.99023 35.2608 9.11719 34.5304 9.11719C33.4288 9.11719 32.5733 8.83594 31.964 8.27344C31.3546 7.70703 31.0499 6.93359 31.0499 5.95312V0.433594H32.8604V5.67773C32.8604 6.33789 32.9933 6.82227 33.2589 7.13086C33.5245 7.43945 33.964 7.59375 34.5772 7.59375C35.171 7.59375 35.6007 7.43945 35.8663 7.13086C36.1358 6.81836 36.2706 6.33008 36.2706 5.66602V0.433594H38.0811ZM44.5744 9H42.758V1.94531H40.4318V0.433594H46.9006V1.94531H44.5744V9Z" fill="#00A4E5"/>
</svg>
