<svg width="62" height="10" viewBox="0 0 62 10" fill="none" xmlns="http://www.w3.org/2000/svg">
<path d="M4.77539 1.51172C3.9707 1.51172 3.33789 1.79688 2.87695 2.36719C2.41602 2.9375 2.18555 3.72461 2.18555 4.72852C2.18555 5.7793 2.40625 6.57422 2.84766 7.11328C3.29297 7.65234 3.93555 7.92188 4.77539 7.92188C5.13867 7.92188 5.49023 7.88672 5.83008 7.81641C6.16992 7.74219 6.52344 7.64844 6.89062 7.53516V8.73633C6.21875 8.99023 5.45703 9.11719 4.60547 9.11719C3.35156 9.11719 2.38867 8.73828 1.7168 7.98047C1.04492 7.21875 0.708984 6.13086 0.708984 4.7168C0.708984 3.82617 0.871094 3.04688 1.19531 2.37891C1.52344 1.71094 1.99609 1.19922 2.61328 0.84375C3.23047 0.488281 3.95508 0.310547 4.78711 0.310547C5.66211 0.310547 6.4707 0.494141 7.21289 0.861328L6.70898 2.02734C6.41992 1.89062 6.11328 1.77148 5.78906 1.66992C5.46875 1.56445 5.13086 1.51172 4.77539 1.51172ZM17.4327 4.70508C17.4327 6.09961 17.0831 7.18359 16.3839 7.95703C15.6886 8.73047 14.7022 9.11719 13.4249 9.11719C12.1319 9.11719 11.1378 8.73438 10.4425 7.96875C9.75107 7.19922 9.40536 6.10742 9.40536 4.69336C9.40536 3.2793 9.75302 2.19336 10.4483 1.43555C11.1475 0.677734 12.1436 0.298828 13.4366 0.298828C14.71 0.298828 15.6944 0.683594 16.3897 1.45312C17.085 2.22266 17.4327 3.30664 17.4327 4.70508ZM10.8936 4.70508C10.8936 5.75977 11.1065 6.56055 11.5323 7.10742C11.9581 7.65039 12.589 7.92188 13.4249 7.92188C14.2569 7.92188 14.8839 7.65234 15.3058 7.11328C15.7315 6.57422 15.9444 5.77148 15.9444 4.70508C15.9444 3.6543 15.7335 2.85742 15.3116 2.31445C14.8936 1.77148 14.2686 1.5 13.4366 1.5C12.5968 1.5 11.962 1.77148 11.5323 2.31445C11.1065 2.85742 10.8936 3.6543 10.8936 4.70508ZM27.5002 9H25.7834L21.5705 2.17383H21.5236L21.5529 2.55469C21.6076 3.28125 21.6349 3.94531 21.6349 4.54688V9H20.3635V0.433594H22.0627L26.2638 7.22461H26.299C26.2912 7.13477 26.2756 6.80859 26.2521 6.24609C26.2287 5.67969 26.217 5.23828 26.217 4.92188V0.433594H27.5002V9ZM33.8118 9H32.4114V1.63477H29.8919V0.433594H36.3313V1.63477H33.8118V9ZM44.055 9L43.1996 6.62109H39.9242L39.0863 9H37.6097L40.8148 0.398438H42.3382L45.5433 9H44.055ZM42.8304 5.41406L42.0277 3.08203C41.9691 2.92578 41.8871 2.67969 41.7816 2.34375C41.68 2.00781 41.6097 1.76172 41.5707 1.60547C41.4652 2.08594 41.3109 2.61133 41.1078 3.18164L40.3343 5.41406H42.8304ZM51.4096 1.51172C50.6049 1.51172 49.9721 1.79688 49.5112 2.36719C49.0502 2.9375 48.8198 3.72461 48.8198 4.72852C48.8198 5.7793 49.0405 6.57422 49.4819 7.11328C49.9272 7.65234 50.5698 7.92188 51.4096 7.92188C51.7729 7.92188 52.1245 7.88672 52.4643 7.81641C52.8042 7.74219 53.1577 7.64844 53.5249 7.53516V8.73633C52.853 8.99023 52.0913 9.11719 51.2397 9.11719C49.9858 9.11719 49.0229 8.73828 48.351 7.98047C47.6792 7.21875 47.3432 6.13086 47.3432 4.7168C47.3432 3.82617 47.5053 3.04688 47.8295 2.37891C48.1577 1.71094 48.6303 1.19922 49.2475 0.84375C49.8647 0.488281 50.5893 0.310547 51.4213 0.310547C52.2963 0.310547 53.1049 0.494141 53.8471 0.861328L53.3432 2.02734C53.0542 1.89062 52.7475 1.77148 52.4233 1.66992C52.103 1.56445 51.7651 1.51172 51.4096 1.51172ZM59.4205 9H58.0201V1.63477H55.5005V0.433594H61.94V1.63477H59.4205V9Z" fill="#48555B"/>
</svg>
