<svg width="39" height="10" viewBox="0 0 39 10" fill="none" xmlns="http://www.w3.org/2000/svg">
<path d="M7.63317 9H6.22692V5.13867H2.2777V9H0.877308V0.433594H2.2777V3.9375H6.22692V0.433594H7.63317V9ZM18.5854 4.70508C18.5854 6.09961 18.2358 7.18359 17.5366 7.95703C16.8413 8.73047 15.8549 9.11719 14.5776 9.11719C13.2846 9.11719 12.2905 8.73438 11.5952 7.96875C10.9038 7.19922 10.5581 6.10742 10.5581 4.69336C10.5581 3.2793 10.9057 2.19336 11.601 1.43555C12.3002 0.677734 13.2963 0.298828 14.5893 0.298828C15.8627 0.298828 16.8471 0.683594 17.5424 1.45312C18.2377 2.22266 18.5854 3.30664 18.5854 4.70508ZM12.0463 4.70508C12.0463 5.75977 12.2592 6.56055 12.685 7.10742C13.1108 7.65039 13.7417 7.92188 14.5776 7.92188C15.4096 7.92188 16.0366 7.65234 16.4585 7.11328C16.8842 6.57422 17.0971 5.77148 17.0971 4.70508C17.0971 3.6543 16.8862 2.85742 16.4643 2.31445C16.0463 1.77148 15.4213 1.5 14.5893 1.5C13.7495 1.5 13.1147 1.77148 12.685 2.31445C12.2592 2.85742 12.0463 3.6543 12.0463 4.70508ZM25.2193 9L22.7349 1.8457H22.688C22.7544 2.9082 22.7876 3.9043 22.7876 4.83398V9H21.5162V0.433594H23.4908L25.8697 7.24805H25.9048L28.354 0.433594H30.3345V9H28.9869V4.76367C28.9869 4.33789 28.9966 3.7832 29.0162 3.09961C29.0396 2.41602 29.0591 2.00195 29.0748 1.85742H29.0279L26.4556 9H25.2193ZM38.527 9H33.6813V0.433594H38.527V1.61719H35.0817V3.94922H38.3102V5.12109H35.0817V7.81055H38.527V9Z" fill="#48555B"/>
</svg>
