<svg width="61" height="10" viewBox="0 0 61 10" fill="none" xmlns="http://www.w3.org/2000/svg">
<path d="M6.07031 6.67383C6.07031 7.43555 5.79492 8.0332 5.24414 8.4668C4.69336 8.90039 3.93359 9.11719 2.96484 9.11719C1.99609 9.11719 1.20312 8.9668 0.585938 8.66602V7.3418C0.976562 7.52539 1.39062 7.66992 1.82812 7.77539C2.26953 7.88086 2.67969 7.93359 3.05859 7.93359C3.61328 7.93359 4.02148 7.82812 4.2832 7.61719C4.54883 7.40625 4.68164 7.12305 4.68164 6.76758C4.68164 6.44727 4.56055 6.17578 4.31836 5.95312C4.07617 5.73047 3.57617 5.4668 2.81836 5.16211C2.03711 4.8457 1.48633 4.48438 1.16602 4.07812C0.845703 3.67188 0.685547 3.18359 0.685547 2.61328C0.685547 1.89844 0.939453 1.33594 1.44727 0.925781C1.95508 0.515625 2.63672 0.310547 3.49219 0.310547C4.3125 0.310547 5.12891 0.490234 5.94141 0.849609L5.49609 1.99219C4.73438 1.67188 4.05469 1.51172 3.45703 1.51172C3.00391 1.51172 2.66016 1.61133 2.42578 1.81055C2.19141 2.00586 2.07422 2.26562 2.07422 2.58984C2.07422 2.8125 2.12109 3.00391 2.21484 3.16406C2.30859 3.32031 2.46289 3.46875 2.67773 3.60938C2.89258 3.75 3.2793 3.93555 3.83789 4.16602C4.4668 4.42773 4.92773 4.67188 5.2207 4.89844C5.51367 5.125 5.72852 5.38086 5.86523 5.66602C6.00195 5.95117 6.07031 6.28711 6.07031 6.67383ZM13.6651 9H8.81942V0.433594H13.6651V1.61719H10.2198V3.94922H13.4483V5.12109H10.2198V7.81055H13.6651V9ZM18.0138 4.41797H18.9865C19.6388 4.41797 20.1115 4.29688 20.4045 4.05469C20.6974 3.8125 20.8439 3.45312 20.8439 2.97656C20.8439 2.49219 20.6857 2.14453 20.3693 1.93359C20.0529 1.72266 19.5763 1.61719 18.9396 1.61719H18.0138V4.41797ZM18.0138 5.57812V9H16.6135V0.433594H19.0334C20.1388 0.433594 20.9572 0.640625 21.4885 1.05469C22.0197 1.46875 22.2853 2.09375 22.2853 2.92969C22.2853 3.99609 21.7306 4.75586 20.6213 5.20898L23.0412 9H21.4474L19.3967 5.57812H18.0138ZM30.261 0.433594H31.7141L28.7141 9H27.2376L24.2493 0.433594H25.6907L27.4778 5.75977C27.5716 6.01367 27.6712 6.3418 27.7766 6.74414C27.8821 7.14258 27.9505 7.43945 27.9817 7.63477C28.0325 7.33789 28.1106 6.99414 28.2161 6.60352C28.3216 6.21289 28.4075 5.92383 28.4739 5.73633L30.261 0.433594ZM33.9359 9V0.433594H35.3363V9H33.9359ZM42.3393 1.51172C41.5346 1.51172 40.9018 1.79688 40.4409 2.36719C39.9799 2.9375 39.7495 3.72461 39.7495 4.72852C39.7495 5.7793 39.9702 6.57422 40.4116 7.11328C40.8569 7.65234 41.4995 7.92188 42.3393 7.92188C42.7026 7.92188 43.0542 7.88672 43.394 7.81641C43.7338 7.74219 44.0874 7.64844 44.4545 7.53516V8.73633C43.7827 8.99023 43.021 9.11719 42.1694 9.11719C40.9155 9.11719 39.9526 8.73828 39.2807 7.98047C38.6088 7.21875 38.2729 6.13086 38.2729 4.7168C38.2729 3.82617 38.435 3.04688 38.7592 2.37891C39.0874 1.71094 39.56 1.19922 40.1772 0.84375C40.7944 0.488281 41.519 0.310547 42.351 0.310547C43.226 0.310547 44.0346 0.494141 44.7768 0.861328L44.2729 2.02734C43.9838 1.89062 43.6772 1.77148 43.353 1.66992C43.0327 1.56445 42.6948 1.51172 42.3393 1.51172ZM52.2369 9H47.3912V0.433594H52.2369V1.61719H48.7915V3.94922H52.0201V5.12109H48.7915V7.81055H52.2369V9ZM60.1246 6.67383C60.1246 7.43555 59.8493 8.0332 59.2985 8.4668C58.7477 8.90039 57.9879 9.11719 57.0192 9.11719C56.0504 9.11719 55.2575 8.9668 54.6403 8.66602V7.3418C55.0309 7.52539 55.445 7.66992 55.8825 7.77539C56.3239 7.88086 56.734 7.93359 57.1129 7.93359C57.6676 7.93359 58.0758 7.82812 58.3375 7.61719C58.6032 7.40625 58.736 7.12305 58.736 6.76758C58.736 6.44727 58.6149 6.17578 58.3727 5.95312C58.1305 5.73047 57.6305 5.4668 56.8727 5.16211C56.0914 4.8457 55.5407 4.48438 55.2203 4.07812C54.9 3.67188 54.7399 3.18359 54.7399 2.61328C54.7399 1.89844 54.9938 1.33594 55.5016 0.925781C56.0094 0.515625 56.6911 0.310547 57.5465 0.310547C58.3668 0.310547 59.1832 0.490234 59.9957 0.849609L59.5504 1.99219C58.7887 1.67188 58.109 1.51172 57.5114 1.51172C57.0582 1.51172 56.7145 1.61133 56.4801 1.81055C56.2457 2.00586 56.1286 2.26562 56.1286 2.58984C56.1286 2.8125 56.1754 3.00391 56.2692 3.16406C56.3629 3.32031 56.5172 3.46875 56.7321 3.60938C56.9469 3.75 57.3336 3.93555 57.8922 4.16602C58.5211 4.42773 58.9821 4.67188 59.275 4.89844C59.568 5.125 59.7828 5.38086 59.9196 5.66602C60.0563 5.95117 60.1246 6.28711 60.1246 6.67383Z" fill="#48555B"/>
</svg>
