<svg width="40" height="10" viewBox="0 0 40 10" fill="none" xmlns="http://www.w3.org/2000/svg">
<path d="M9.03516 9H7.51172L6.05859 3.89062C5.99609 3.66797 5.91797 3.34766 5.82422 2.92969C5.73047 2.50781 5.67383 2.21484 5.6543 2.05078C5.61523 2.30078 5.55078 2.625 5.46094 3.02344C5.375 3.42188 5.30273 3.71875 5.24414 3.91406L3.82617 9H2.30273L1.19531 4.71094L0.0703125 0.433594H1.5L2.72461 5.42578C2.91602 6.22656 3.05273 6.93359 3.13477 7.54688C3.17773 7.21484 3.24219 6.84375 3.32812 6.43359C3.41406 6.02344 3.49219 5.69141 3.5625 5.4375L4.95703 0.433594H6.3457L7.77539 5.46094C7.91211 5.92578 8.05664 6.62109 8.20898 7.54688C8.26758 6.98828 8.4082 6.27734 8.63086 5.41406L9.84961 0.433594H11.2676L9.03516 9ZM21.1827 4.70508C21.1827 6.09961 20.8331 7.18359 20.1339 7.95703C19.4386 8.73047 18.4522 9.11719 17.1749 9.11719C15.8819 9.11719 14.8878 8.73438 14.1925 7.96875C13.5011 7.19922 13.1554 6.10742 13.1554 4.69336C13.1554 3.2793 13.503 2.19336 14.1983 1.43555C14.8975 0.677734 15.8936 0.298828 17.1866 0.298828C18.46 0.298828 19.4444 0.683594 20.1397 1.45312C20.835 2.22266 21.1827 3.30664 21.1827 4.70508ZM14.6436 4.70508C14.6436 5.75977 14.8565 6.56055 15.2823 7.10742C15.7081 7.65039 16.339 7.92188 17.1749 7.92188C18.0069 7.92188 18.6339 7.65234 19.0558 7.11328C19.4815 6.57422 19.6944 5.77148 19.6944 4.70508C19.6944 3.6543 19.4835 2.85742 19.0616 2.31445C18.6436 1.77148 18.0186 1.5 17.1866 1.5C16.3468 1.5 15.712 1.77148 15.2823 2.31445C14.8565 2.85742 14.6436 3.6543 14.6436 4.70508ZM25.5138 4.41797H26.4865C27.1388 4.41797 27.6115 4.29688 27.9045 4.05469C28.1974 3.8125 28.3439 3.45312 28.3439 2.97656C28.3439 2.49219 28.1857 2.14453 27.8693 1.93359C27.5529 1.72266 27.0763 1.61719 26.4396 1.61719H25.5138V4.41797ZM25.5138 5.57812V9H24.1135V0.433594H26.5334C27.6388 0.433594 28.4572 0.640625 28.9885 1.05469C29.5197 1.46875 29.7853 2.09375 29.7853 2.92969C29.7853 3.99609 29.2306 4.75586 28.1213 5.20898L30.5412 9H28.9474L26.8967 5.57812H25.5138ZM39.4192 9H37.7962L35.1067 5.12109L34.2805 5.79492V9H32.8801V0.433594H34.2805V4.52344C34.6634 4.05469 35.0442 3.60352 35.4231 3.16992L37.7376 0.433594H39.3313C37.8352 2.19141 36.763 3.44336 36.1145 4.18945L39.4192 9Z" fill="#48555B"/>
</svg>
